<svg width="65" height="65" viewBox="0 0 65 65" fill="none" xmlns="http://www.w3.org/2000/svg">
<path d="M32.633 44.3962C34.9213 44.3962 36.7831 42.5346 36.7831 40.2464C36.7831 37.9581 34.9215 36.0963 32.633 36.0963C30.3448 36.0963 28.4832 37.958 28.4832 40.2464C28.4833 42.5346 30.3449 44.3962 32.633 44.3962ZM32.633 38.0007C33.8713 38.0007 34.8787 39.0081 34.8787 40.2464C34.8787 41.4846 33.8713 42.4918 32.633 42.4918C31.3948 42.4918 30.3876 41.4844 30.3876 40.2464C30.3876 39.0082 31.3948 38.0007 32.633 38.0007Z" fill="#E3B469"/>
<path d="M51.0425 13.7551C54.8348 13.7551 57.9202 10.6699 57.9202 6.87767C57.9203 3.08521 54.8348 0 51.0425 0C47.2503 0 44.1652 3.08521 44.1652 6.87755C44.1652 10.6698 47.2504 13.7551 51.0425 13.7551ZM51.0425 1.90442C53.7848 1.90442 56.0158 4.13536 56.0158 6.87755C56.0158 9.61973 53.7848 11.8505 51.0425 11.8505C48.3005 11.8505 46.0696 9.61973 46.0696 6.87755C46.0696 4.13536 48.3005 1.90442 51.0425 1.90442Z" fill="#E3B469"/>
<path d="M61.2323 24.3405C60.7064 24.3405 60.2802 24.7667 60.2802 25.2927V38.3218C60.2802 38.6609 60.0043 38.9368 59.6654 38.9368H57.3421V22.1292C57.3421 21.6033 56.9159 21.1771 56.39 21.1771C55.864 21.1771 55.4378 21.6033 55.4378 22.1292V62.4806C55.4378 62.8195 55.162 63.0954 54.823 63.0954H52.6101C52.271 63.0954 51.9951 62.8195 51.9951 62.4806V47.3326C51.9951 46.8067 51.5689 46.3804 51.043 46.3804C50.517 46.3804 50.0908 46.8067 50.0908 47.3326V62.4806C50.0908 62.8195 49.815 63.0954 49.476 63.0954H47.2631C46.9241 63.0954 46.6482 62.8195 46.6482 62.4806V22.1292C46.6482 21.6033 46.2221 21.1771 45.6961 21.1771C45.1701 21.1771 44.7439 21.6033 44.7439 22.1292V38.9369H42.4207C42.0819 38.9369 41.806 38.6612 41.8059 38.3227V22.1263C41.8059 18.9991 44.35 16.455 47.4772 16.455H54.6092C57.7364 16.455 60.2806 18.9991 60.2806 22.1263C60.2806 22.6523 60.7067 23.0785 61.2327 23.0785C61.7587 23.0785 62.1849 22.6523 62.1849 22.1263C62.1849 17.9491 58.7863 14.5505 54.6091 14.5505H47.4766C43.2993 14.5505 39.9008 17.9491 39.9008 22.1263V38.3231C39.9015 39.7118 41.0316 40.8413 42.4201 40.8413H44.7433V62.4806C44.7433 63.8697 45.8734 64.9998 47.2626 64.9998H49.4755C50.0677 64.9998 50.612 64.793 51.0426 64.4496C51.4732 64.793 52.0175 64.9998 52.6098 64.9998H54.8227C56.2119 64.9998 57.342 63.8698 57.342 62.4806V40.8412H59.6652C61.0543 40.8412 62.1845 39.7109 62.1845 38.3218V25.2927C62.1846 24.7667 61.7583 24.3405 61.2323 24.3405Z" fill="#E3B469"/>
<path d="M12.7147 19.5755C16.507 19.5755 19.5924 16.4903 19.5924 12.698C19.5924 8.90571 16.507 5.8205 12.7147 5.8205C8.92248 5.8205 5.8374 8.90571 5.8374 12.698C5.83753 16.4903 8.92248 19.5755 12.7147 19.5755ZM12.7147 7.72492C15.457 7.72492 17.6879 9.95586 17.6879 12.698C17.6879 15.4402 15.457 17.671 12.7147 17.671C9.97264 17.671 7.74182 15.4402 7.74182 12.698C7.74195 9.95586 9.97277 7.72492 12.7147 7.72492Z" fill="#E3B469"/>
<path d="M15.8462 20.4695H9.58379C5.85176 20.4695 2.81555 23.5057 2.81555 27.2377V41.4596C2.81593 42.7429 3.86025 43.7868 5.14374 43.7868H5.17256L4.51342 49.7858C4.48397 50.0548 4.57017 50.3237 4.75069 50.5252C4.93135 50.7268 5.18919 50.8419 5.45985 50.8419H7.06771V62.6718C7.06771 63.9555 8.11228 65 9.3959 65H11.339C11.8541 65 12.329 64.8299 12.7151 64.5456C13.1011 64.8299 13.576 65 14.0913 65H16.0344C17.3181 65 18.3626 63.9555 18.3626 62.6718V57.414C18.3626 56.8881 17.9364 56.4619 17.4104 56.4619C16.8845 56.4619 16.4583 56.8881 16.4583 57.414V62.6718C16.4583 62.9055 16.2682 63.0956 16.0345 63.0956H14.0914C13.8577 63.0956 13.6675 62.9055 13.6675 62.6718V52.5015C13.6675 51.9755 13.2413 51.5493 12.7153 51.5493C12.1894 51.5493 11.7632 51.9755 11.7632 52.5015V62.6718C11.7632 62.9055 11.5731 63.0956 11.3394 63.0956H9.39577C9.16205 63.0956 8.972 62.9055 8.972 62.6718V50.8419H16.4579V54.3662C16.4579 54.892 16.8841 55.3183 17.4101 55.3183C17.936 55.3183 18.3622 54.892 18.3622 54.3662V50.8419H19.9699C20.2406 50.8419 20.4984 50.7268 20.679 50.5252C20.8596 50.3237 20.9458 50.0548 20.9164 49.7858L20.2572 43.7868H20.286C21.5698 43.7868 22.6142 42.7426 22.6142 41.4587V27.2376C22.6142 23.5057 19.578 20.4695 15.8462 20.4695ZM20.7099 41.4586C20.7098 41.6922 20.5198 41.8822 20.286 41.8822H20.048L18.3048 26.0187C18.2473 25.4962 17.7768 25.1204 17.2543 25.1763C16.7316 25.2336 16.3544 25.704 16.4118 26.2267L18.9075 48.9374H18.0113H17.4102H8.01986H7.23783H6.52245L9.01809 26.2267C9.07547 25.704 8.69829 25.2336 8.17563 25.1763C7.65195 25.1203 7.18248 25.4962 7.12509 26.0187L5.3819 41.8822H5.14387C4.91027 41.8822 4.72023 41.6923 4.7201 41.4591V27.2376C4.7201 24.5557 6.90204 22.3738 9.58392 22.3738H15.8462C18.528 22.3738 20.7099 24.5557 20.7099 27.2376V41.4586Z" fill="#E3B469"/>
<path d="M39.8493 41.2292C39.168 41.2506 38.5355 41.5361 38.0691 42.033L34.5179 45.8147H30.842L27.2908 42.0329C26.3273 41.0074 24.7092 40.9565 23.6829 41.9197C22.6574 42.883 22.6063 44.5013 23.5694 45.5273L27.6866 49.9117V62.5115C27.6866 63.8836 28.8029 64.9998 30.175 64.9998H35.1847C36.5568 64.9998 37.6729 63.8836 37.6729 62.5115V57.2863C37.6729 56.7603 37.2467 56.3341 36.7207 56.3341C36.1947 56.3341 35.7686 56.7603 35.7686 57.2863V62.5115C35.7686 62.8335 35.5067 63.0954 35.1848 63.0954H33.5873V55.1535C33.5873 54.6275 33.1611 54.2013 32.6351 54.2013C32.1093 54.2013 31.683 54.6275 31.683 55.1535V63.0954H30.1751C29.8532 63.0954 29.5912 62.8335 29.5912 62.5115V49.5347C29.5912 49.2926 29.4989 49.0595 29.3332 48.8829L24.9581 44.2239C24.7136 43.9634 24.7266 43.5525 24.9868 43.308C25.2473 43.0635 25.6582 43.0766 25.9027 43.3368L29.7358 47.4189C29.9158 47.6106 30.1669 47.7193 30.4299 47.7193H34.93C35.193 47.7193 35.4442 47.6105 35.6242 47.4189L39.4573 43.3368C39.7019 43.0763 40.1128 43.0636 40.3729 43.3079C40.6334 43.5525 40.6462 43.9634 40.4018 44.2237L36.0265 48.8828C35.8606 49.0594 35.7684 49.2925 35.7684 49.5346V54.1121C35.7684 54.6379 36.1946 55.0642 36.7206 55.0642C37.2465 55.0642 37.6727 54.6379 37.6727 54.1121V49.9116L41.7901 45.5273C42.7533 44.5014 42.7022 42.8831 41.6764 41.9195C41.1798 41.453 40.5314 41.2091 39.8493 41.2292Z" fill="#E3B469"/>
</svg>
