<svg width="65" height="65" viewBox="0 0 65 65" fill="none" xmlns="http://www.w3.org/2000/svg">
<g clip-path="url(#clip0)">
<path d="M29.9932 44.0864C30.4896 43.59 30.4896 42.7867 29.9932 42.2903C29.4963 41.7953 28.6914 41.7953 28.194 42.2903C27.6981 42.7867 27.6981 43.59 28.194 44.0864C28.6914 44.5814 29.4963 44.5814 29.9932 44.0864Z" fill="#E3B469"/>
<path d="M23.9711 13.9609C23.9711 21.6589 30.2462 27.9223 37.9593 27.9223C45.6724 27.9223 51.9475 21.6589 51.9475 13.9609C51.9475 6.26286 45.6724 0 37.9593 0C30.2462 0 23.9711 6.26286 23.9711 13.9609V13.9609ZM49.4044 13.9609C49.4044 20.2594 44.2702 25.3837 37.9593 25.3837C31.6484 25.3837 26.5141 20.2594 26.5141 13.9609C26.5141 7.66281 31.6484 2.53857 37.9593 2.53857C44.2702 2.53857 49.4044 7.66281 49.4044 13.9609Z" fill="#E3B469"/>
<path d="M14.7112 64.6246C15.2041 65.1205 16.0065 65.126 16.5059 64.635L22.6712 58.573C23.7186 57.5276 24.0371 55.9799 23.5765 54.6345L24.9027 53.358C25.6167 52.6697 26.5568 52.2903 27.5506 52.2903H44.4559C47.4551 52.2903 50.2898 51.1408 52.4388 49.0535C52.5273 48.9677 51.7676 49.8608 63.9719 35.3029C65.7821 33.1655 65.5113 29.956 63.3677 28.1474C61.2376 26.3557 58.0466 26.613 56.2315 28.7137L48.7276 36.4112C47.7801 35.2473 46.3352 34.5218 44.774 34.5218H30.5935C28.5756 33.6793 26.4346 33.2528 24.2254 33.2528C18.1019 33.2528 12.7549 36.0755 9.88545 41.3679C8.67653 41.1393 7.40154 41.5043 6.48429 42.4197L0.434768 48.4753C-0.0591323 48.9697 -0.060126 49.7696 0.43278 50.2655L14.7112 64.6246ZM24.2249 35.7909C26.1727 35.7909 28.0559 36.1821 29.8233 36.9538C29.9843 37.0242 30.1577 37.0604 30.3331 37.0604H44.774C46.1528 37.0604 47.3175 38.1826 47.3175 39.5985C47.3175 40.9984 46.1766 42.137 44.774 42.137H34.3986C33.6965 42.137 33.1271 42.7053 33.1271 43.4061C33.1271 44.1073 33.6965 44.6751 34.3986 44.6751H44.774C47.5788 44.6751 49.8605 42.3979 49.8605 39.5985C49.8605 39.3753 49.8446 39.1541 49.8158 38.9349C57.0747 31.4878 58.0983 30.4415 58.142 30.3894C59.0483 29.3217 60.6573 29.1863 61.7275 30.0869C62.7988 30.9909 62.9345 32.5957 62.0257 33.6694L50.6198 47.2781C48.9542 48.874 46.7674 49.7522 44.4559 49.7522H27.5506C25.894 49.7522 24.3258 50.3845 23.1363 51.5316L22.0556 52.5725L12.0931 42.63C14.4215 38.2704 18.7905 35.7909 24.2249 35.7909V35.7909ZM8.284 44.2134C8.70337 43.7949 9.34732 43.7195 9.85861 44.0349C10.0787 44.1688 9.4467 43.5945 20.873 54.9826C21.3813 55.4899 21.354 56.2983 20.8799 56.7714L15.6239 61.9392L3.12886 49.3734L8.284 44.2134Z" fill="#E3B469"/>
<path d="M36.4334 6.34619V7.83343C34.9531 8.35711 33.8898 9.76798 33.8898 11.4228C33.8898 13.522 35.6011 15.2304 37.7049 15.2304C38.406 15.2304 38.9764 15.7997 38.9764 16.4995C38.9764 17.1992 38.406 17.7685 37.7049 17.7685C37.1618 17.7685 36.575 17.4278 36.0537 16.8084C35.6016 16.2718 34.7996 16.2029 34.262 16.6537C33.7244 17.105 33.6548 17.9054 34.107 18.442C34.7867 19.2488 35.5862 19.8112 36.4334 20.0948V21.5761C36.4334 22.2773 37.0028 22.8451 37.7049 22.8451C38.407 22.8451 38.9764 22.2773 38.9764 21.5761V20.0889C40.4566 19.5647 41.5199 18.1538 41.5199 16.4995C41.5199 14.3998 39.8087 12.6919 37.7049 12.6919C37.0038 12.6919 36.4334 12.1226 36.4334 11.4228C36.4334 10.7231 37.0038 10.1533 37.7049 10.1533C38.1555 10.1533 38.6311 10.3829 39.0802 10.8168C39.5851 11.3043 40.39 11.2909 40.8785 10.7876C41.3669 10.2837 41.3535 9.48035 40.8491 8.99287C40.2037 8.36951 39.5577 8.01692 38.9764 7.8245V6.34619C38.9764 5.64497 38.407 5.07666 37.7049 5.07666C37.0028 5.07666 36.4334 5.64497 36.4334 6.34619V6.34619Z" fill="#E3B469"/>
</g>
<defs>
<clipPath id="clip0">
<rect width="65" height="65" fill="white"/>
</clipPath>
</defs>
</svg>
