<svg width="65" height="65" viewBox="0 0 65 65" fill="none" xmlns="http://www.w3.org/2000/svg">
<g clip-path="url(#clip0)">
<path d="M41.6385 6.45605H21.86C21.334 6.45605 20.9078 6.88224 20.9078 7.4082C20.9078 7.93417 21.334 8.36035 21.86 8.36035H41.6385C42.1645 8.36035 42.5907 7.93417 42.5907 7.4082C42.5907 6.88224 42.1645 6.45605 41.6385 6.45605Z" fill="#E3B469"/>
<path d="M41.6385 12.0295H21.86C21.334 12.0295 20.9078 12.4557 20.9078 12.9817C20.9078 13.5077 21.334 13.9338 21.86 13.9338H41.6385C42.1645 13.9338 42.5907 13.5077 42.5907 12.9817C42.5907 12.4557 42.1645 12.0295 41.6385 12.0295Z" fill="#E3B469"/>
<path d="M59.8616 32.9292H54.2091V30.2711C54.2091 26.7677 51.3588 23.9176 47.8554 23.9176H37.1507C33.6473 23.9176 30.7971 26.7677 30.7971 30.2711V32.9292H25.1445C22.3015 32.9292 20.0061 35.2343 20.0061 38.0677V59.8431C20.0061 62.6763 22.3112 64.9815 25.1445 64.9815H59.8618C62.695 64.9815 65.0002 62.6764 65.0002 59.8431V55.7171C65.0002 55.1911 64.574 54.7649 64.0481 54.7649C63.5221 54.7649 63.0959 55.1911 63.0959 55.7171V59.8431C63.0959 61.6264 61.6451 63.0772 59.8618 63.0772H25.1445C23.3612 63.0772 21.9104 61.6264 21.9104 59.8431V46.3482C23.4109 48.1983 25.6681 49.4109 28.2064 49.5101V50.9638C28.2064 52.8825 29.7674 54.4435 31.686 54.4435C33.6047 54.4435 35.1657 52.8825 35.1657 50.9638V49.5167H49.8405V50.9638C49.8405 52.8825 51.4015 54.4435 53.3201 54.4435C55.2388 54.4435 56.7998 52.8825 56.7998 50.9638V49.5101C59.3381 49.4109 61.5953 48.1983 63.0958 46.3482V51.2657C63.0958 51.7917 63.522 52.2179 64.0479 52.2179C64.5739 52.2179 65.0001 51.7917 65.0001 51.2657V38.0674C65.0001 35.2351 62.7057 32.9292 59.8616 32.9292ZM32.7014 30.2711C32.7014 27.8179 34.6974 25.8219 37.1507 25.8219H47.8554C50.3088 25.8219 52.3048 27.8179 52.3048 30.2711V32.9292H50.3219V30.2711C50.3219 28.9113 49.2155 27.8049 47.8554 27.8049H37.1507C35.7908 27.8049 34.6844 28.9113 34.6844 30.2711V32.9292H32.7014V30.2711ZM36.5887 32.9292V30.2711C36.5887 29.9613 36.8407 29.7092 37.1507 29.7092H47.8554C48.1653 29.7092 48.4176 29.9612 48.4176 30.2711V32.9292H36.5887ZM33.2614 50.9638C33.2614 51.8326 32.5548 52.5392 31.686 52.5392C30.8173 52.5392 30.1107 51.8326 30.1107 50.9638V47.5601C30.1107 46.6913 30.8173 45.9847 31.686 45.9847C32.5548 45.9847 33.2614 46.6913 33.2614 47.5601V50.9638ZM54.8955 50.9638C54.8955 51.8326 54.1889 52.5392 53.3201 52.5392C52.4514 52.5392 51.7448 51.8326 51.7448 50.9638V48.5743C51.7448 48.571 51.7449 48.5677 51.7449 48.5645C51.7449 48.5614 51.7448 48.5579 51.7448 48.5548V47.5602C51.7448 46.6915 52.4514 45.9848 53.3201 45.9848C54.1889 45.9848 54.8955 46.6915 54.8955 47.5602V50.9638ZM56.7998 47.6039V47.5602C56.7998 45.6416 55.2388 44.0806 53.3201 44.0806C51.4015 44.0806 49.8405 45.6416 49.8405 47.5602V47.6124H35.1657V47.5602C35.1657 45.6416 33.6047 44.0806 31.686 44.0806C29.7674 44.0806 28.2064 45.6416 28.2064 47.5602V47.6039C24.7049 47.4275 21.9104 44.5235 21.9104 40.979V38.0674C21.9104 36.2816 23.3578 34.8334 25.1445 34.8334H59.8618C61.6439 34.8334 63.0959 36.277 63.0959 38.0675V40.979C63.0958 44.5235 60.3013 47.4275 56.7998 47.6039Z" fill="#E3B469"/>
<path d="M18.7785 63.0765H4.70856C3.16228 63.0765 1.9043 61.8185 1.9043 60.2723V14.537C1.9043 14.3315 1.92626 14.1294 1.96917 13.9332H10.6344C12.4436 13.9332 13.9155 12.4613 13.9155 10.6522V1.98705C14.1116 1.94427 14.3137 1.92218 14.5192 1.92218H46.8019C48.3482 1.92218 49.6062 3.18016 49.6062 4.72645V21.063C49.6062 21.589 50.0324 22.0152 50.5583 22.0152C51.0843 22.0152 51.5105 21.589 51.5105 21.063V4.72645C51.5105 2.13013 49.3982 0.0178833 46.8019 0.0178833H14.5191C13.2614 0.0178833 12.0788 0.507542 11.1895 1.39685L1.37896 11.2075C0.489658 12.0968 0 13.2793 0 14.537V60.2723C0 62.8686 2.11225 64.9808 4.70856 64.9808H18.7785C19.3045 64.9808 19.7307 64.5546 19.7307 64.0287C19.7307 63.5027 19.3045 63.0765 18.7785 63.0765ZM12.011 3.26877V10.6522C12.011 11.4113 11.3934 12.0289 10.6342 12.0289H3.25089L12.011 3.26877Z" fill="#E3B469"/>
</g>
<defs>
<clipPath id="clip0">
<rect width="65" height="65" fill="white"/>
</clipPath>
</defs>
</svg>
