<svg width="15" height="15" viewBox="0 0 15 15" fill="none" xmlns="http://www.w3.org/2000/svg">
<path d="M13.1601 4.2616L12.8162 3.91766C12.7081 3.8095 12.564 3.75 12.4102 3.75C12.2564 3.75 12.1122 3.8095 12.0041 3.91766L7.17129 8.7504L4.15181 5.73083C4.04374 5.62284 3.89955 5.56326 3.74572 5.56326C3.59198 5.56326 3.44788 5.62284 3.33972 5.73083L2.9957 6.07469C2.88754 6.18302 2.82812 6.32728 2.82812 6.48094C2.82812 6.63469 2.88754 6.77887 2.9957 6.88703L6.40487 10.296C6.4094 10.3024 6.41418 10.3084 6.41973 10.3139L6.76375 10.6522C6.87182 10.7599 7.01601 10.8138 7.17103 10.8138H7.17283C7.32674 10.8138 7.47092 10.7599 7.57883 10.6522L7.92294 10.3109C7.92848 10.3054 7.93318 10.3009 7.936 10.2963L13.1601 5.07275C13.3841 4.84917 13.3841 4.48543 13.1601 4.2616Z" fill="white"/>
</svg>
