<svg width="20" height="20" viewBox="0 0 20 20" fill="none" xmlns="http://www.w3.org/2000/svg">
<path d="M14.4806 0H5.51916C2.4759 0 0 2.47601 0 5.51928V14.4807C0 17.5241 2.4759 20 5.51916 20H14.4806C17.5241 20 20 17.524 20 14.4807V5.51928C20.0001 2.47601 17.5241 0 14.4806 0ZM18.2256 14.4807C18.2256 16.5456 16.5456 18.2255 14.4807 18.2255H5.51916C3.45435 18.2256 1.7745 16.5456 1.7745 14.4807V5.51928C1.7745 3.45447 3.45435 1.7745 5.51916 1.7745H14.4806C16.5455 1.7745 18.2255 3.45447 18.2255 5.51928V14.4807H18.2256Z" fill="white" fill-opacity="0.6"/>
<path d="M9.99969 4.8468C7.15801 4.8468 4.84619 7.15862 4.84619 10.0003C4.84619 12.8419 7.15801 15.1536 9.99969 15.1536C12.8414 15.1536 15.1532 12.8419 15.1532 10.0003C15.1532 7.15862 12.8414 4.8468 9.99969 4.8468ZM9.99969 13.3789C8.13658 13.3789 6.62069 11.8633 6.62069 10.0002C6.62069 8.13696 8.13646 6.62118 9.99969 6.62118C11.8629 6.62118 13.3787 8.13696 13.3787 10.0002C13.3787 11.8633 11.8628 13.3789 9.99969 13.3789Z" fill="white" fill-opacity="0.6"/>
<path d="M15.3701 3.34201C15.0283 3.34201 14.6924 3.48042 14.451 3.72294C14.2083 3.96427 14.0688 4.30024 14.0688 4.64331C14.0688 4.98531 14.2084 5.32117 14.451 5.56368C14.6923 5.80501 15.0283 5.94461 15.3701 5.94461C15.7132 5.94461 16.048 5.80501 16.2905 5.56368C16.533 5.32117 16.6714 4.98519 16.6714 4.64331C16.6714 4.30024 16.533 3.96427 16.2905 3.72294C16.0492 3.48042 15.7132 3.34201 15.3701 3.34201Z" fill="white" fill-opacity="0.6"/>
</svg>
