<svg width="117" height="133" viewBox="0 0 117 133" fill="none" xmlns="http://www.w3.org/2000/svg">
<g clip-path="url(#clip0)">
<path d="M112.506 18.4283L60.7471 0.377711C59.2986 -0.126026 57.7204 -0.126026 56.272 0.377711L4.51318 18.4283C3.19455 18.8861 2.05198 19.7389 1.24345 20.8686C0.434934 21.9984 0.000419444 23.3493 0 24.7346L0 47.2034H117V24.7346C117.001 23.3516 116.569 22.0024 115.764 20.8729C114.959 19.7434 113.821 18.8893 112.506 18.4283Z" fill="url(#paint0_linear)"/>
<path d="M116.162 83.1722H0.818848C6.39844 101.6 39.4761 121.973 54.4248 131.792C55.6197 132.583 57.0251 133.004 58.4619 133H58.5571C59.988 133.003 61.3872 132.582 62.5752 131.792C77.543 121.973 110.621 101.6 116.162 83.1722Z" fill="url(#paint1_linear)"/>
<path d="M105.403 66.6133V52.2068H108.335V57.8712H114.048V52.2068H116.981V66.6133H114.067V60.3069H108.354V66.6133H105.403ZM92.0727 59.4006C91.9562 60.7576 92.3647 62.1076 93.2153 63.1769C93.5835 63.5608 94.0266 63.8665 94.5177 64.0753C95.0087 64.2842 95.5375 64.3919 96.0718 64.3919C96.6061 64.3919 97.1348 64.2842 97.6259 64.0753C98.1169 63.8665 98.56 63.5608 98.9282 63.1769C99.7461 62.0918 100.145 60.7521 100.052 59.4006C100.195 58.0706 99.8276 56.736 99.0234 55.6621C98.6625 55.2531 98.2129 54.9302 97.7084 54.7177C97.2038 54.5052 96.6574 54.4085 96.1099 54.4348C95.5607 54.4175 95.0142 54.5183 94.508 54.7301C94.0018 54.942 93.5478 55.2599 93.1772 55.6621C92.3474 56.7274 91.9408 58.0577 92.0347 59.4006H92.0727ZM89.0449 59.495C88.9993 58.204 89.2263 56.9177 89.7114 55.7188C90.0381 54.9826 90.4962 54.311 91.0635 53.7362C91.602 53.1777 92.25 52.7344 92.9678 52.4334C93.9597 52.0381 95.0219 51.8454 96.0908 51.867C97.0332 51.8093 97.9773 51.9475 98.8627 52.2727C99.7481 52.5978 100.555 53.1027 101.232 53.7551C101.9 54.5009 102.412 55.3705 102.739 56.3135C103.066 57.2566 103.201 58.2544 103.137 59.2496C103.198 60.2416 103.062 61.2359 102.735 62.1755C102.408 63.1152 101.898 63.9816 101.232 64.7251C99.8293 65.9936 97.9991 66.6967 96.1003 66.6967C94.2016 66.6967 92.3713 65.9936 90.9683 64.7251C89.6531 63.3012 88.9495 61.425 89.0068 59.495H89.0449ZM77.3144 52.2068H80.2471V58.3433C80.7389 58.3384 81.2124 58.1573 81.5801 57.8335C82.0281 57.1312 82.3863 56.3765 82.6465 55.5866C82.9872 54.4565 83.6481 53.4472 84.5508 52.6789C85.4603 52.2355 86.4725 52.04 87.4834 52.1124H87.9214V54.2649H87.5024C87.0524 54.2344 86.6016 54.3121 86.1885 54.4915C85.8951 54.6342 85.6551 54.8656 85.5029 55.1523C85.2073 55.7643 84.9528 56.3951 84.7412 57.0404C84.596 57.4748 84.4045 57.8925 84.1699 58.2866C83.8872 58.6879 83.5074 59.0125 83.0654 59.2307C83.7139 59.4153 84.2828 59.8069 84.6841 60.3447C85.2228 61.0853 85.6884 61.8757 86.0742 62.7048L87.9785 66.651H84.4936L82.7607 62.8748L82.5893 62.5727L82.2275 61.8929C82.0074 61.4004 81.6975 60.9523 81.3135 60.5713C80.9863 60.3599 80.5984 60.2605 80.209 60.288V66.5944H77.2764L77.3144 52.2068ZM70.3257 60.8922L68.3071 55.5677L66.4028 60.8922H70.3257ZM75.6958 66.5566H72.4966L71.2397 63.2713H65.4126L64.2129 66.5566H61.0898L66.8027 52.1502H69.9258L75.6958 66.5566ZM51.9302 56.1153L49.0737 55.4544C49.3544 54.3308 50.0449 53.35 51.012 52.7014C51.9791 52.0529 53.1542 51.7825 54.3105 51.9425C55.6736 51.8503 57.0248 52.2456 58.1191 53.0565C58.5213 53.3682 58.8469 53.7664 59.0712 54.221C59.2955 54.6756 59.4127 55.1749 59.4141 55.681C59.4251 56.3567 59.2183 57.0182 58.8237 57.5691C58.3517 58.1801 57.7462 58.6771 57.0527 59.023C57.8888 59.2777 58.6349 59.7622 59.2046 60.4202C59.7043 61.0545 59.9607 61.844 59.9282 62.6482C59.9476 63.2313 59.8305 63.811 59.586 64.3417C59.3415 64.8724 58.9763 65.3397 58.519 65.707C57.3078 66.5796 55.8221 66.9947 54.3296 66.8776C53.1006 66.9111 51.8828 66.6385 50.7876 66.0846C49.8223 65.4057 49.1441 64.397 48.8833 63.2524L51.416 62.4216C51.5547 63.1009 51.9498 63.702 52.5205 64.1021C53.04 64.3808 53.6249 64.5177 54.2153 64.4986C54.9472 64.5608 55.6757 64.3448 56.2529 63.8944C56.4478 63.72 56.6043 63.5075 56.7124 63.2703C56.8206 63.0331 56.8781 62.7763 56.8813 62.516C56.8899 62.2408 56.8301 61.9677 56.7073 61.7208C56.5844 61.4739 56.4022 61.2607 56.1768 61.0999C55.5325 60.6881 54.7703 60.4959 54.0059 60.5524H53.3394V58.381H53.6631C54.3998 58.4335 55.1307 58.2187 55.7197 57.7768C55.9598 57.5894 56.1509 57.3475 56.2769 57.0714C56.4028 56.7954 56.4599 56.4933 56.4434 56.1908C56.4491 55.94 56.4011 55.6909 56.3027 55.4598C56.2042 55.2287 56.0574 55.0209 55.8721 54.8502C55.4069 54.473 54.8151 54.2841 54.2153 54.3215C53.6807 54.2986 53.1555 54.4672 52.7359 54.7965C52.3163 55.1259 52.0303 55.594 51.9302 56.1153ZM30.8496 59.4006C30.733 60.7576 31.1415 62.1076 31.9922 63.1769C32.3604 63.5608 32.8035 63.8665 33.2945 64.0753C33.7856 64.2842 34.3143 64.3919 34.8486 64.3919C35.3829 64.3919 35.9117 64.2842 36.4027 64.0753C36.8938 63.8665 37.3369 63.5608 37.7051 63.1769C38.5372 62.0989 38.9374 60.7538 38.8286 59.4006C38.9317 58.0832 38.5456 56.7738 37.7432 55.7188C37.3726 55.3166 36.9186 54.9986 36.4124 54.7868C35.9062 54.5749 35.3597 54.4742 34.8105 54.4915C34.2645 54.4769 33.7218 54.579 33.2191 54.7908C32.7164 55.0025 32.2655 55.319 31.897 55.7188C31.1143 56.782 30.7426 58.0886 30.8496 59.4006ZM27.8218 59.495C27.7762 58.204 28.0032 56.9177 28.4883 55.7188C28.8219 54.9865 29.2792 54.316 29.8403 53.7362C30.3788 53.1777 31.0269 52.7344 31.7446 52.4334C32.7438 52.04 33.8118 51.8475 34.8867 51.867C35.8288 51.8128 36.7719 51.9526 37.6568 52.2776C38.5417 52.6025 39.3491 53.1056 40.0283 53.7551C40.6958 54.5009 41.2078 55.3705 41.5346 56.3135C41.8615 57.2566 41.9967 58.2544 41.9326 59.2496C42.0465 61.2517 41.3626 63.2181 40.0283 64.7251C39.354 65.376 38.5501 65.8802 37.668 66.2053C36.786 66.5305 35.8451 66.6694 34.9058 66.6133C33.9603 66.6736 33.0125 66.5367 32.1236 66.2115C31.2347 65.8863 30.4245 65.38 29.7451 64.7251C28.4437 63.2953 27.754 61.4198 27.8218 59.495ZM16.7197 58.3055H18.8906C19.7773 58.3447 20.6657 58.2814 21.5376 58.1167C21.8711 58.0119 22.1595 57.7991 22.3564 57.5125C22.5616 57.1839 22.6673 56.8038 22.6611 56.4174C22.6789 55.9915 22.5364 55.5742 22.2612 55.2467C21.9742 54.9318 21.5819 54.7305 21.1567 54.6803C20.9092 54.6803 20.2046 54.6803 19.0239 54.6803H16.7197V58.3055ZM13.7871 66.6133V52.2068H19.957C21.0998 52.1579 22.2433 52.2853 23.3467 52.5845C24.0515 52.8426 24.6483 53.328 25.0415 53.9628C25.4656 54.6428 25.6837 55.4292 25.6699 56.2286C25.7273 57.206 25.3996 58.1673 24.7559 58.9097C23.9938 59.6778 22.9816 60.1528 21.8994 60.2503C22.4754 60.5771 23.0013 60.984 23.4609 61.4587C24.0786 62.1916 24.6328 62.9748 25.1177 63.8L26.8887 66.6133H23.3467L21.2329 63.4601C20.7671 62.7217 20.2518 62.0153 19.6904 61.3454C19.45 61.0835 19.1495 60.8827 18.8145 60.7601C18.3314 60.6265 17.8301 60.5692 17.3291 60.5901H16.7197V66.6133H13.7871ZM3.19922 54.6425V58.7398H4.79883C5.57308 58.7873 6.35011 58.7172 7.10303 58.5321C7.47226 58.3873 7.79021 58.1377 8.01709 57.8146C8.24347 57.4665 8.35649 57.0578 8.34082 56.6439C8.35964 56.1681 8.19639 55.7027 7.88379 55.3411C7.5732 55.0127 7.15447 54.8051 6.70312 54.7558C6.00607 54.6988 5.30546 54.6988 4.6084 54.7558L3.19922 54.6425ZM0.247559 66.6133V52.2068H4.95117C6.11692 52.1546 7.28498 52.2242 8.43603 52.4145C9.27689 52.6355 10.0161 53.1353 10.5308 53.8306C11.1385 54.6425 11.4537 55.6332 11.4258 56.6439C11.4449 57.4194 11.2819 58.1886 10.9497 58.8908C10.653 59.4513 10.2293 59.936 9.71191 60.3069C9.25327 60.6291 8.73588 60.86 8.18848 60.9866C7.18738 61.1445 6.17413 61.214 5.16064 61.1943H3.25635V66.6322L0.247559 66.6133Z" fill="white"/>
<path d="M97.1192 73.2217H97.919V76.8092L100.166 73.2217H101.023V77.9421H100.223V74.3735L97.9761 77.9421H97.1192V73.2217ZM93.7866 73.2217H96.5479V73.8826H94.6436V77.9421H93.8438L93.7866 73.2217ZM89.1782 79.7358L89.083 78.9994C89.2344 79.0237 89.3887 79.0237 89.5401 78.9994C89.6863 79.0133 89.8332 78.9802 89.959 78.905C90.0733 78.8554 90.1672 78.7689 90.2256 78.6596C90.3296 78.4741 90.4126 78.2778 90.4732 78.0742V77.8665L88.5689 73.1462H89.4448L90.4351 75.8651C90.5493 76.205 90.6636 76.5826 90.7778 76.9602C90.8656 76.602 90.9737 76.249 91.1016 75.9029L92.1109 73.1462H92.9297L91.4063 78.0176C91.2158 78.5274 91.0635 78.8861 90.9683 79.0749C90.8452 79.3015 90.6767 79.5006 90.4732 79.6603C90.2705 79.7755 90.0402 79.8342 89.8067 79.8302C89.6052 79.8428 89.4035 79.8105 89.2163 79.7358H89.1782ZM84.2652 73.2217H88.0737V77.9232H87.2739V73.8826H85.103V76.2239C85.1331 76.5883 85.1331 76.9545 85.103 77.319C85.0595 77.4966 84.9593 77.6555 84.8174 77.7721C84.6109 77.9124 84.3625 77.979 84.1128 77.9609H83.4653V77.3001H83.7891C83.9018 77.3266 84.0192 77.3266 84.1319 77.3001C84.1687 77.291 84.2023 77.2721 84.2291 77.2455C84.2559 77.2189 84.275 77.1855 84.2842 77.149C84.3044 76.9103 84.3044 76.6703 84.2842 76.4316L84.2652 73.2217ZM82.3609 76.205L83.1416 76.3183C83.0949 76.8102 82.8557 77.2643 82.4751 77.5833C82.1153 77.8888 81.6536 78.0504 81.1802 78.0365C80.8876 78.0559 80.5945 78.008 80.3236 77.8967C80.0528 77.7853 79.8115 77.6135 79.6187 77.3945C79.3966 77.1358 79.2297 76.835 79.1282 76.5105C79.0268 76.1859 78.9928 75.8443 79.0283 75.5064C79.0166 75.0474 79.1008 74.5909 79.2759 74.1658C79.4287 73.8013 79.7048 73.5008 80.0567 73.3161C80.3997 73.1259 80.7871 73.0283 81.1802 73.0329C81.6299 73.0164 82.0722 73.1493 82.437 73.4105C82.7706 73.6983 82.9927 74.0921 83.0654 74.5245L82.2847 74.6378C82.2449 74.3623 82.1103 74.1089 81.9038 73.9203C81.7089 73.768 81.4664 73.6879 81.2183 73.6938C81.0323 73.6847 80.8467 73.7174 80.6753 73.7893C80.5038 73.8612 80.351 73.9705 80.228 74.1092C79.9749 74.5358 79.8869 75.0391 79.9805 75.5253C79.9398 76.0121 80.0674 76.4982 80.3423 76.9036C80.4594 77.0392 80.6058 77.147 80.7706 77.2189C80.9354 77.2908 81.1145 77.325 81.2944 77.319C81.5878 77.33 81.8743 77.2285 82.0943 77.0358C82.2952 76.8023 82.4153 76.5111 82.437 76.205H82.3609ZM74.7437 79.7358V78.9994C74.9015 79.0227 75.0619 79.0227 75.2197 78.9994C75.366 79.0133 75.5128 78.9802 75.6387 78.905C75.753 78.8554 75.8469 78.7689 75.9053 78.6596C76.0092 78.4741 76.0923 78.2778 76.1528 78.0742V77.8665L74.2486 73.1462H75.1055L76.1719 75.9406C76.3052 76.2805 76.4194 76.6581 76.5337 77.0358C76.6127 76.6752 76.7209 76.3216 76.8574 75.9784L77.8667 73.2217H78.6665L76.8765 78.0176C76.752 78.3813 76.5992 78.7348 76.4194 79.0749C76.307 79.3084 76.1366 79.5098 75.9243 79.6603C75.7296 79.7777 75.5047 79.8367 75.2769 79.8302C75.1202 79.8249 74.9656 79.7929 74.8198 79.7358H74.7437ZM67.7549 75.1287H70.459C70.4524 74.8088 70.3459 74.4988 70.1543 74.2413C70.0361 74.0947 69.885 73.9774 69.7132 73.8988C69.5413 73.8201 69.3533 73.7823 69.1641 73.7882C68.9922 73.7825 68.8209 73.8114 68.6606 73.873C68.5002 73.9347 68.3541 74.0278 68.231 74.1469C67.9826 74.4156 67.8405 74.7643 67.8311 75.1287H67.7549ZM70.4019 76.4127L71.2207 76.526C71.1155 76.9686 70.86 77.3619 70.4971 77.64C70.1041 77.9189 69.6278 78.0586 69.145 78.0365C68.8416 78.0525 68.5382 78.0034 68.2555 77.8926C67.9729 77.7819 67.7177 77.6119 67.5073 77.3945C67.2916 77.1538 67.1266 76.8728 67.022 76.5681C66.9173 76.2633 66.8752 75.9408 66.898 75.6197C66.8661 75.2805 66.9037 74.9384 67.0084 74.614C67.1131 74.2895 67.2828 73.9894 67.5073 73.7315C67.7102 73.5136 67.9582 73.3417 68.2343 73.2277C68.5103 73.1136 68.808 73.0601 69.1069 73.0707C69.3964 73.0542 69.6858 73.1035 69.9531 73.2147C70.2204 73.326 70.4586 73.4963 70.6494 73.7126C70.8721 73.9716 71.0407 74.2719 71.1453 74.5961C71.2499 74.9202 71.2885 75.2617 71.2588 75.6008V75.8085H67.793C67.7865 76.2449 67.9424 76.6684 68.231 76.998C68.3595 77.1282 68.5139 77.2306 68.6843 77.2989C68.8547 77.3671 69.0375 77.3997 69.2212 77.3945C69.4928 77.4001 69.7593 77.3208 69.9829 77.1679C70.2119 76.9671 70.3773 76.7048 70.459 76.4127H70.4019ZM62.042 73.2217H62.8418V76.8092L65.0889 73.2217H65.9458V77.9421H65.146V74.3735L62.918 77.9421H62.042V73.2217ZM58.043 73.2217H58.8428V75.2609C59.0332 75.277 59.2229 75.2232 59.376 75.1099C59.5732 74.8527 59.7275 74.5658 59.833 74.2602C59.926 73.9989 60.0541 73.7512 60.2139 73.5238C60.302 73.4152 60.4217 73.3362 60.5566 73.2973C60.7581 73.2608 60.9646 73.2608 61.166 73.2973H61.3374V73.9581H61.1089C60.9794 73.9135 60.8385 73.9135 60.709 73.9581C60.5822 74.1365 60.4857 74.3342 60.4233 74.5434C60.3437 74.7681 60.228 74.9785 60.0806 75.1665C59.9522 75.3165 59.7887 75.4332 59.6045 75.5064C59.8317 75.5861 60.04 75.7109 60.2168 75.8733C60.3937 76.0356 60.5352 76.232 60.6328 76.4504L61.5278 77.9232H60.6328L59.7568 76.4693C59.6449 76.2462 59.4896 76.0473 59.2998 75.884C59.1693 75.7834 59.0081 75.7301 58.8428 75.7329V77.9232H58.043V73.2217ZM56.5767 76.205L57.3574 76.3183C57.2946 76.8053 57.0582 77.254 56.6909 77.5833C56.3263 77.8933 55.8569 78.0551 55.377 78.0365C55.0993 78.0406 54.8238 77.9873 54.5681 77.88C54.3124 77.7727 54.082 77.6138 53.8916 77.4134C53.4573 76.8834 53.2519 76.2047 53.3203 75.5253C53.3146 75.0649 53.4054 74.6084 53.5869 74.1847C53.7388 73.8255 54.0067 73.5267 54.3486 73.335C54.6993 73.1464 55.0923 73.049 55.4912 73.0518C55.9409 73.0352 56.3833 73.1682 56.7481 73.4294C57.0816 73.7172 57.3038 74.111 57.3765 74.5434L56.5957 74.6567C56.549 74.3835 56.4155 74.1321 56.2149 73.9392C56.014 73.7841 55.7647 73.7039 55.5103 73.7126C55.3273 73.7051 55.145 73.7385 54.9768 73.8104C54.8087 73.8824 54.6591 73.9909 54.5391 74.128C54.2486 74.5269 54.1133 75.0164 54.1582 75.5064C54.1176 75.9932 54.2452 76.4793 54.52 76.8847C54.6362 77.0214 54.7824 77.13 54.9475 77.202C55.1125 77.274 55.292 77.3075 55.4722 77.3001C55.7656 77.3111 56.052 77.2097 56.272 77.0169C56.483 76.7935 56.6165 76.509 56.6528 76.205H56.5767ZM48.9595 75.1287H51.6065C51.5998 74.8088 51.4934 74.4988 51.3018 74.2413C51.1835 74.0947 51.0325 73.9774 50.8606 73.8988C50.6887 73.8201 50.5007 73.7823 50.3115 73.7882C50.1396 73.7825 49.9684 73.8114 49.808 73.873C49.6477 73.9347 49.5015 74.0278 49.3784 74.1469C49.1575 74.4263 49.0429 74.7739 49.0547 75.1287H48.9595ZM51.6065 76.4127L52.4253 76.526C52.3277 76.9718 52.0707 77.3675 51.7017 77.64C51.3087 77.9189 50.8324 78.0586 50.3496 78.0365C50.0461 78.0525 49.7427 78.0034 49.4601 77.8926C49.1775 77.7819 48.9223 77.6119 48.7119 77.3945C48.4962 77.1538 48.3312 76.8728 48.2266 76.5681C48.1219 76.2633 48.0798 75.9408 48.1025 75.6197C48.0707 75.2805 48.1082 74.9384 48.213 74.614C48.3177 74.2895 48.4874 73.9894 48.7119 73.7315C48.9171 73.5165 49.1654 73.3466 49.441 73.2328C49.7165 73.1189 50.0131 73.0637 50.3115 73.0707C50.601 73.0542 50.8904 73.1035 51.1577 73.2147C51.425 73.326 51.6631 73.4963 51.854 73.7126C52.0767 73.9716 52.2453 74.2719 52.3499 74.5961C52.4545 74.9202 52.4931 75.2617 52.4634 75.6008V75.8085H49.0166C49.0201 76.2431 49.1749 76.6633 49.4546 76.998C49.5832 77.1282 49.7375 77.2306 49.9079 77.2989C50.0783 77.3671 50.2611 77.3997 50.4448 77.3945C50.717 77.4041 50.9847 77.3245 51.2065 77.1679C51.4426 76.9696 51.6147 76.707 51.7017 76.4127H51.6065ZM43.3037 73.2217H44.1035V74.1092C44.0768 74.3918 44.0768 74.6762 44.1035 74.9588C44.1646 75.138 44.2855 75.2912 44.4463 75.3931C44.6386 75.5346 44.8734 75.6077 45.1128 75.6008C45.5162 75.5756 45.9138 75.4929 46.2935 75.3553V73.2217H47.0933V77.9421H46.2935V76.0539C45.8442 76.1982 45.3755 76.2746 44.9033 76.2805C44.5669 76.2849 44.2364 76.1931 43.9512 76.0162C43.6958 75.8521 43.4966 75.6151 43.3799 75.3364C43.285 75.0633 43.2398 74.7756 43.2466 74.4868L43.3037 73.2217ZM38.4858 73.2217H39.2856V76.8092L41.5327 73.2217H42.3897V77.9421H41.5898V74.3735L39.3618 77.9421H38.4858V73.2217ZM34.4487 73.8826C34.4703 75.0552 34.2228 76.2173 33.7251 77.2812H36.2959V73.8826H34.4487ZM33.7822 73.2217H37.0957V77.2812H37.6099V79.1693H36.9434V77.8477H33.1348V79.3015H32.4683V77.4134H32.8872C33.6541 76.1544 34.0006 74.6875 33.8774 73.2217H33.7822ZM28.0693 73.2217H28.8882V76.8092L31.1162 73.2217H31.9922V77.9421H31.2305V74.3735L29.0024 77.9421H28.1265L28.0693 73.2217ZM23.7847 75.5253C23.7435 76.0003 23.8715 76.4746 24.1465 76.8658C24.2509 77.0027 24.3863 77.1133 24.5418 77.1887C24.6973 77.2642 24.8684 77.3023 25.0415 77.3001C25.2189 77.3001 25.3938 77.2591 25.5525 77.1805C25.7111 77.1018 25.8491 76.9876 25.9556 76.8469C26.2493 76.4496 26.3849 75.9589 26.3364 75.4686C26.376 74.9937 26.2481 74.5199 25.9746 74.128C25.8711 73.9888 25.7364 73.8754 25.581 73.7967C25.4257 73.7181 25.254 73.6763 25.0796 73.6749C24.9017 73.6826 24.7277 73.7288 24.5698 73.8104C24.4118 73.8919 24.2739 74.0068 24.1655 74.1469C23.8894 74.5524 23.7555 75.0368 23.7847 75.5253ZM23.042 79.6603V73.2217H23.7847V73.8448C23.9304 73.6264 24.1262 73.4453 24.356 73.3161C24.6008 73.1835 24.8769 73.1183 25.1558 73.1273C25.5336 73.1209 25.9048 73.226 26.2222 73.4294C26.5429 73.647 26.7887 73.9567 26.9268 74.3168C27.0827 74.7073 27.1603 75.1242 27.1553 75.5441C27.1634 75.9906 27.0792 76.434 26.9077 76.8469C26.7453 77.2093 26.4808 77.5175 26.146 77.7344C25.8292 77.9234 25.4683 78.0275 25.0986 78.0365C24.8469 78.0408 24.5981 77.9823 24.375 77.8665C24.1762 77.7652 24.0011 77.6237 23.8608 77.4511V79.7358L23.042 79.6603ZM20.0332 73.7315C19.8545 73.7234 19.6767 73.7607 19.5166 73.8401C19.3566 73.9194 19.2198 74.038 19.1191 74.1847C18.8717 74.5523 18.7514 74.9896 18.7764 75.4308C18.7318 75.9273 18.8521 76.4246 19.1191 76.8469C19.215 76.9893 19.3456 77.1055 19.4986 77.1847C19.6517 77.2639 19.8225 77.3036 19.9951 77.3001C20.1695 77.306 20.343 77.2715 20.5016 77.1994C20.6603 77.1273 20.7998 77.0196 20.9092 76.8847C21.1717 76.4886 21.2925 76.0164 21.252 75.5441C21.2871 75.0712 21.1812 74.5984 20.9473 74.1847C20.8381 74.0519 20.6976 73.9479 20.5381 73.882C20.3786 73.8161 20.2052 73.7904 20.0332 73.8071V73.7315ZM16.2246 73.1462H17.0435V75.0343H18.0146C18.0658 74.517 18.2789 74.0285 18.624 73.6371C18.8017 73.4577 19.0159 73.3178 19.2523 73.2267C19.4886 73.1355 19.7418 73.0952 19.9951 73.1084C20.3902 73.0848 20.7829 73.1838 21.1187 73.3917C21.4139 73.5912 21.6505 73.8648 21.8042 74.1847C22.0059 74.6087 22.0976 75.076 22.0708 75.5441C22.1326 76.22 21.9354 76.8941 21.5186 77.4323C21.33 77.6401 21.0972 77.8038 20.837 77.9115C20.5769 78.0193 20.2958 78.0684 20.0142 78.0553C19.7438 78.055 19.4766 77.9976 19.2303 77.8869C18.9841 77.7762 18.7644 77.6148 18.5859 77.4134C18.1992 76.9659 17.9835 76.3978 17.9766 75.8085H17.0054V77.9043H16.1865L16.2246 73.1462Z" fill="white"/>
<path d="M117 46.1648H0V47.1089H117V46.1648Z" fill="#424242"/>
<path d="M116.219 83.1722H1.04736V84.1162H116.219V83.1722Z" fill="#424242"/>
<path d="M97.9189 36.4598H19.0811V37.4039H97.9189V36.4598Z" fill="#424242"/>
<path d="M27.2886 83.1722V98.0507L27.4219 98.1828V98.3716H26.4126V98.1828L26.5459 98.0507V83.1722H27.2886ZM26.4126 41.6333H27.4219V41.8221L27.2886 41.9543V47.2033H26.5459V41.9354L26.4126 41.8032V41.6333ZM25.9365 83.1722V98.0507L26.0698 98.1828V98.3716H25.0605V98.1828L25.1938 98.0507V83.1722H25.9365ZM25.0605 41.6333H26.0698V41.8221L25.9365 41.9543V47.2033H25.1938V41.9354L25.0605 41.8032V41.6333ZM24.5845 83.1722V98.0507L24.7559 98.1828V98.3716H23.7275V98.1828L23.8608 98.0507V83.1722H24.5845ZM23.7085 41.6333H24.7559V41.8221L24.6035 41.9543V47.2033H23.8608V41.9354C23.8213 41.8867 23.7766 41.8424 23.7275 41.8032L23.7085 41.6333ZM23.2515 83.1722V98.0507L23.3848 98.1828V98.3716H22.3564V98.1828L22.5088 98.0507V83.1722H23.2515ZM22.3564 41.6333H23.3848V41.8221L23.2515 41.9543V47.2033H22.5088V41.9354L22.3564 41.8032V41.6333ZM19.4238 99.8255H28.9453C29.0297 99.83 29.1094 99.8653 29.1692 99.9245C29.2289 99.9838 29.2645 100.063 29.269 100.146C29.269 100.189 29.2607 100.23 29.2444 100.269C29.2281 100.308 29.2043 100.344 29.1742 100.373C29.1442 100.403 29.1085 100.427 29.0692 100.443C29.0299 100.459 28.9878 100.467 28.9453 100.467H19.4238C19.3689 100.486 19.3098 100.488 19.2535 100.474C19.1972 100.461 19.146 100.431 19.106 100.389C19.066 100.348 19.0389 100.296 19.0277 100.239C19.0165 100.183 19.0218 100.124 19.043 100.071C19.0613 99.9887 19.1114 99.9168 19.1827 99.8709C19.2539 99.825 19.3406 99.8086 19.4238 99.8255ZM20.2236 99.1458H28.2026C28.2292 99.1431 28.256 99.146 28.2814 99.1543C28.3067 99.1626 28.33 99.1761 28.3498 99.1939C28.3695 99.2117 28.3853 99.2334 28.396 99.2577C28.4068 99.2819 28.4122 99.3081 28.4121 99.3346C28.4121 99.3897 28.39 99.4425 28.3508 99.4814C28.3115 99.5204 28.2582 99.5423 28.2026 99.5423H20.2236C20.1714 99.5376 20.1229 99.5136 20.0877 99.4752C20.0524 99.4367 20.033 99.3865 20.0332 99.3346C20.0301 99.3091 20.033 99.2832 20.0414 99.2589C20.0499 99.2346 20.0639 99.2125 20.0822 99.1944C20.1005 99.1762 20.1228 99.1624 20.1473 99.1539C20.1718 99.1455 20.1979 99.1427 20.2236 99.1458ZM21.1377 98.5982H27.2886C27.3239 98.5982 27.3578 98.6121 27.3828 98.6369C27.4078 98.6617 27.4219 98.6953 27.4219 98.7304C27.4173 98.7621 27.4012 98.791 27.3767 98.8119C27.3522 98.8327 27.3209 98.844 27.2886 98.8437H21.1377C21.1074 98.8437 21.0783 98.8317 21.0569 98.8105C21.0355 98.7892 21.0234 98.7604 21.0234 98.7304C21.0231 98.6984 21.0345 98.6673 21.0555 98.643C21.0765 98.6187 21.1057 98.6028 21.1377 98.5982ZM21.8994 83.1722V98.0507L22.0327 98.1828V98.3716H20.9473V98.1828L21.0806 98.0507V83.1722H21.8994ZM20.9473 41.5389H21.9565V41.7277L21.8232 41.8599V47.2033H21.0806V41.9354L20.9473 41.8032V41.5389ZM27.3457 41.199C27.1997 41.0864 27.0877 40.9362 27.022 40.7647H21.3091C21.2362 40.9322 21.1254 41.0808 20.9854 41.199H27.3457ZM20.1855 38.8389C18.6812 38.8389 18.624 41.1046 20.0332 41.1046C20.1473 41.1123 20.2618 41.0972 20.37 41.0603C20.4781 41.0234 20.5777 40.9654 20.6629 40.8897C20.7481 40.8141 20.8171 40.7223 20.866 40.6197C20.9148 40.5172 20.9424 40.406 20.9473 40.2927C20.9716 40.1663 20.9469 40.0355 20.878 39.9264C20.8091 39.8174 20.7012 39.7382 20.5759 39.7047C20.4506 39.6713 20.3172 39.6861 20.2024 39.7461C20.0876 39.8061 20 39.907 19.957 40.0284C19.9842 39.9002 20.0567 39.7859 20.1615 39.7063C20.2663 39.6266 20.3965 39.5868 20.5283 39.5941C20.7523 39.6087 20.9615 39.7098 21.1111 39.8758C21.2607 40.0417 21.3386 40.2592 21.3281 40.4815H27.041C27.0306 40.2592 27.1085 40.0417 27.258 39.8758C27.4076 39.7098 27.6169 39.6087 27.8408 39.5941C27.9718 39.5905 28.1001 39.6317 28.2041 39.7108C28.3081 39.7899 28.3816 39.902 28.4121 40.0284C28.3573 39.9198 28.2664 39.8332 28.1548 39.7832C28.0431 39.7332 27.9176 39.7229 27.7991 39.7539C27.6807 39.7849 27.5767 39.8554 27.5045 39.9535C27.4323 40.0517 27.3964 40.1714 27.4028 40.2927C27.4077 40.406 27.4353 40.5172 27.4841 40.6197C27.533 40.7223 27.602 40.8141 27.6872 40.8897C27.7724 40.9654 27.872 41.0234 27.9801 41.0603C28.0883 41.0972 28.2028 41.1123 28.3169 41.1046C29.7451 41.1046 29.688 38.8389 28.1646 38.8389H20.1855ZM40.9995 83.1722V98.0507L41.1328 98.1828V98.3716H40.1235V98.1828L40.2568 98.0507V83.1722H40.9995ZM40.1235 41.6333H41.1328V41.8221C41.0837 41.8613 41.039 41.9056 40.9995 41.9543V47.2033H40.2568V41.9354L40.1235 41.8032V41.6333ZM39.6475 83.1722V98.0507L39.7808 98.1828V98.3716H38.7715V98.1828L38.9048 98.0507V83.1722H39.6475ZM38.7715 41.6333H39.7808V41.8221L39.6475 41.9543V47.2033H38.9048V41.9354L38.7715 41.8032V41.6333ZM38.3145 83.1722V98.0507L38.4478 98.1828V98.3716H37.4194V98.1828L37.5527 98.0507V83.1722H38.3145ZM37.4194 41.6333H38.4478V41.8221C38.3942 41.856 38.3487 41.9011 38.3145 41.9543V47.2033H37.5527V41.9354L37.4194 41.8032V41.6333ZM36.9624 83.1722V98.0507L37.0957 98.1828V98.3716H36.1816V98.1828L36.3149 98.0507V83.1722H36.9624ZM36.1816 41.5389H37.1909V41.7277L37.0576 41.8599V47.2033H36.1816V41.9354V41.8032V41.5389ZM33.1348 99.8255H42.6563C42.7421 99.8255 42.8245 99.8593 42.8852 99.9195C42.9459 99.9797 42.98 100.061 42.98 100.146C42.9828 100.189 42.9763 100.232 42.961 100.273C42.9458 100.313 42.922 100.349 42.8914 100.38C42.8607 100.41 42.8239 100.434 42.7834 100.449C42.7428 100.464 42.6995 100.47 42.6563 100.467H33.1348C33.0915 100.47 33.0482 100.464 33.0076 100.449C32.9671 100.434 32.9303 100.41 32.8996 100.38C32.869 100.349 32.8453 100.313 32.83 100.273C32.8147 100.232 32.8082 100.189 32.811 100.146C32.811 100.061 32.8451 99.9797 32.9059 99.9195C32.9666 99.8593 33.0489 99.8255 33.1348 99.8255ZM33.9346 99.1458H41.8945C41.945 99.1458 41.9935 99.1657 42.0292 99.2011C42.0649 99.2365 42.085 99.2845 42.085 99.3346C42.0852 99.3865 42.0657 99.4367 42.0305 99.4752C41.9952 99.5136 41.9467 99.5376 41.8945 99.5423H33.8965C33.8443 99.5376 33.7958 99.5136 33.7605 99.4752C33.7253 99.4367 33.7058 99.3865 33.7061 99.3346C33.7055 99.3063 33.7113 99.2782 33.7232 99.2524C33.735 99.2266 33.7526 99.2038 33.7745 99.1857C33.7965 99.1676 33.8223 99.1546 33.85 99.1477C33.8777 99.1407 33.9066 99.1401 33.9346 99.1458ZM34.8486 98.5982H41.0186C41.0505 98.6028 41.0797 98.6187 41.1007 98.643C41.1217 98.6673 41.1331 98.6984 41.1328 98.7304C41.1328 98.7604 41.1208 98.7892 41.0993 98.8105C41.0779 98.8317 41.0489 98.8437 41.0186 98.8437H34.8486C34.8183 98.8437 34.7893 98.8317 34.7678 98.8105C34.7464 98.7892 34.7344 98.7604 34.7344 98.7304C34.734 98.6984 34.7454 98.6673 34.7665 98.643C34.7875 98.6187 34.8167 98.6028 34.8486 98.5982ZM35.6104 83.1722V98.0507L35.7437 98.1828V98.3716H34.7344V98.1828L34.8677 98.0507V83.1722H35.6104ZM34.7344 41.6333H35.7437V41.8221L35.6104 41.9543V47.2033H34.8677V41.9354L34.7344 41.8032V41.6333ZM41.1328 41.2934C40.9868 41.1808 40.8748 41.0306 40.8091 40.8592H35.0962C35.0305 41.0306 34.9185 41.1808 34.7725 41.2934H41.1328ZM33.9917 38.9333C32.4683 38.9333 32.4111 41.199 33.8203 41.199C33.9344 41.2067 34.0489 41.1916 34.1571 41.1547C34.2652 41.1178 34.3648 41.0598 34.45 40.9842C34.5352 40.9085 34.6042 40.8167 34.6531 40.7141C34.7019 40.6116 34.7296 40.5004 34.7344 40.3871C34.7587 40.2607 34.734 40.1299 34.6651 40.0208C34.5963 39.9118 34.4883 39.8326 34.363 39.7991C34.2377 39.7657 34.1043 39.7805 33.9895 39.8405C33.8747 39.9005 33.7871 40.0014 33.7441 40.1228C33.7656 39.9957 33.8302 39.8797 33.9271 39.7939C34.024 39.708 34.1476 39.6576 34.2773 39.6507C34.5013 39.6653 34.7106 39.7665 34.8601 39.9324C35.0097 40.0984 35.0876 40.3159 35.0772 40.5382H40.79C40.7796 40.3159 40.8575 40.0984 41.0071 39.9324C41.1566 39.7665 41.3659 39.6653 41.5898 39.6507C41.7209 39.6472 41.8491 39.6884 41.9532 39.7674C42.0572 39.8465 42.1306 39.9586 42.1611 40.085C42.1182 39.9636 42.0306 39.8628 41.9158 39.8027C41.801 39.7427 41.6676 39.7279 41.5423 39.7614C41.4169 39.7948 41.309 39.874 41.2402 39.9831C41.1713 40.0921 41.1465 40.223 41.1709 40.3494C41.1757 40.4627 41.2034 40.5738 41.2522 40.6764C41.3011 40.7789 41.3701 40.8707 41.4553 40.9464C41.5405 41.0221 41.6401 41.08 41.7482 41.1169C41.8564 41.1539 41.9709 41.1689 42.085 41.1613C43.4941 41.1613 43.437 38.8955 41.9136 38.8955L33.9917 38.9333ZM54.7105 83.1722V98.0507L54.8438 98.1828V98.3716H53.8345V98.1828L53.9678 98.0507V83.1722H54.7105ZM53.8345 41.6333H54.8438V41.8221L54.7105 41.9543V47.2033H53.9678V41.9354L53.8345 41.8032V41.6333ZM53.3774 83.1722V98.0507L53.5107 98.1828V98.3716H52.4824V98.1828L52.6157 98.0507V83.1722H53.3774ZM52.4824 41.6333H53.5107V41.8221C53.4572 41.856 53.4117 41.9011 53.3774 41.9543V47.2033H52.6157V41.9354L52.4824 41.8032V41.6333ZM52.0254 83.1722V98.0507L52.1587 98.1828V98.3716H51.1494V98.1828L51.2827 98.0507V83.1722H52.0254ZM51.1494 41.6333H52.1587V41.8221C52.1096 41.8613 52.0649 41.9056 52.0254 41.9543V47.2033H51.2827V41.9354L51.1494 41.8032V41.6333ZM50.6733 83.1722V98.0507L50.8066 98.1828V98.3716H49.7974V98.1828L49.9307 98.0507V83.1722H50.6733ZM49.7974 41.6333H50.8066V41.8221L50.6733 41.9543V47.2033H49.9307V41.9354L49.7974 41.8032V41.6333ZM46.8457 99.8255H56.3672C56.4531 99.8255 56.5354 99.8593 56.5961 99.9195C56.6568 99.9797 56.6909 100.061 56.6909 100.146C56.6937 100.189 56.6873 100.232 56.672 100.273C56.6567 100.313 56.633 100.349 56.6023 100.38C56.5717 100.41 56.5349 100.434 56.4943 100.449C56.4538 100.464 56.4104 100.47 56.3672 100.467H46.8457C46.8032 100.467 46.7611 100.459 46.7218 100.443C46.6825 100.427 46.6469 100.403 46.6168 100.373C46.5867 100.344 46.5629 100.308 46.5466 100.269C46.5303 100.23 46.522 100.189 46.522 100.146C46.5266 100.063 46.5621 99.9838 46.6219 99.9245C46.6816 99.8653 46.7613 99.83 46.8457 99.8255ZM47.6646 99.1458H55.6436C55.6693 99.1427 55.6954 99.1455 55.7199 99.1539C55.7444 99.1624 55.7667 99.1762 55.785 99.1944C55.8033 99.2125 55.8173 99.2346 55.8257 99.2589C55.8342 99.2832 55.8371 99.3091 55.834 99.3346C55.8367 99.3609 55.8337 99.3875 55.8253 99.4126C55.817 99.4378 55.8034 99.4609 55.7854 99.4805C55.7675 99.5001 55.7456 99.5157 55.7211 99.5263C55.6967 99.537 55.6703 99.5424 55.6436 99.5423H47.6074C47.5519 99.5423 47.4986 99.5204 47.4593 99.4814C47.42 99.4425 47.398 99.3897 47.398 99.3346C47.3978 99.3081 47.4033 99.2819 47.414 99.2577C47.4248 99.2334 47.4405 99.2117 47.4603 99.1939C47.48 99.1761 47.5033 99.1626 47.5287 99.1543C47.554 99.146 47.5809 99.1431 47.6074 99.1458H47.6646ZM48.5786 98.5982H54.7295C54.7615 98.6028 54.7907 98.6187 54.8117 98.643C54.8327 98.6673 54.8441 98.6984 54.8438 98.7304C54.8438 98.7604 54.8317 98.7892 54.8103 98.8105C54.7889 98.8317 54.7598 98.8437 54.7295 98.8437H48.5786C48.5463 98.844 48.515 98.8327 48.4905 98.8119C48.466 98.791 48.4499 98.7621 48.4453 98.7304C48.4453 98.6953 48.4594 98.6617 48.4844 98.6369C48.5094 98.6121 48.5433 98.5982 48.5786 98.5982ZM49.3213 83.1722V98.0507L49.5117 98.1828V98.3716H48.4834V98.1828L48.6167 98.0507V83.1722H49.3213ZM48.4453 41.6333H49.5117V41.8221L49.3594 41.9543V47.2033H48.6167V41.9354L48.4834 41.8032L48.4453 41.6333ZM54.8438 41.2934C54.7091 41.1703 54.5992 41.0229 54.52 40.8592H48.8071C48.7414 41.0306 48.6294 41.1808 48.4834 41.2934H54.8438ZM47.7026 38.9333C46.1792 38.9333 46.1221 41.199 47.5503 41.199C47.6644 41.2067 47.7789 41.1916 47.887 41.1547C47.9952 41.1178 48.0948 41.0598 48.18 40.9842C48.2652 40.9085 48.3342 40.8167 48.3831 40.7141C48.4319 40.6116 48.4595 40.5004 48.4644 40.3871C48.4708 40.2658 48.4349 40.1461 48.3627 40.0479C48.2905 39.9498 48.1865 39.8793 48.0681 39.8483C47.9496 39.8173 47.824 39.8276 47.7124 39.8776C47.6008 39.9276 47.5099 40.0142 47.4551 40.1228C47.4856 39.9964 47.559 39.8843 47.6631 39.8052C47.7671 39.7261 47.8954 39.6849 48.0264 39.6885C48.2503 39.7031 48.4596 39.8042 48.6091 39.9702C48.7587 40.1361 48.8366 40.3536 48.8262 40.5759H54.5391C54.5159 40.3647 54.5735 40.1524 54.7004 39.9812C54.8273 39.8099 55.0144 39.692 55.2246 39.6507C55.3565 39.6434 55.4866 39.6832 55.5914 39.7629C55.6962 39.8426 55.7688 39.9569 55.7959 40.085C55.753 39.9636 55.6653 39.8628 55.5505 39.8027C55.4358 39.7427 55.3023 39.7279 55.177 39.7614C55.0517 39.7948 54.9438 39.874 54.8749 39.9831C54.806 40.0921 54.7813 40.223 54.8057 40.3494C54.8105 40.4627 54.8381 40.5738 54.887 40.6764C54.9358 40.7789 55.0049 40.8707 55.0901 40.9464C55.1752 41.0221 55.2748 41.08 55.383 41.1169C55.4911 41.1539 55.6056 41.1689 55.7197 41.1613C57.1289 41.1613 57.0718 38.8955 55.5674 38.8955L47.7026 38.9333ZM68.4214 83.1722V98.0507L68.5547 98.1828V98.3716H67.5264V98.1828L67.6597 98.0507V83.1722H68.4214ZM67.5454 41.6333H68.5547V41.8221L68.4023 41.9543V47.2033H67.6597V41.9354L67.5264 41.8032L67.5454 41.6333ZM67.0884 83.1722V98.0507L67.2217 98.1828V98.3716H66.1934V98.1828L66.3457 98.0507V83.1722H67.0884ZM66.1934 41.6333H67.2217V41.8221L67.0884 41.9543V47.2033H66.3457V41.9354L66.1934 41.8032V41.6333ZM65.7363 83.1722V98.0507L65.8696 98.1828V98.3716H64.8604V98.1828L64.9937 98.0507V83.1722H65.7363ZM64.8604 41.6333H65.8696V41.8221L65.7363 41.9543V47.2033H64.9937V41.9354L64.8604 41.8032V41.6333ZM64.3843 83.1722V98.0507L64.5176 98.1828V98.3716H63.5083V98.1828L63.6416 98.0507V83.1722H64.3843ZM63.5083 41.6333H64.5176V41.8221L64.3843 41.9543V47.2033H63.6416V41.9354L63.5083 41.8032V41.6333ZM60.5566 99.8255H70.1733C70.24 99.8341 70.3026 99.862 70.3534 99.9057C70.4042 99.9493 70.4409 100.007 70.459 100.071C70.459 100.156 70.4249 100.238 70.3642 100.298C70.3035 100.358 70.2211 100.392 70.1353 100.392H60.5566C60.4708 100.392 60.3884 100.358 60.3277 100.298C60.267 100.238 60.2329 100.156 60.2329 100.071C60.2533 100.001 60.2957 99.9395 60.354 99.8953C60.4123 99.8512 60.4833 99.8267 60.5566 99.8255ZM61.3755 99.1458H69.3545C69.3811 99.1431 69.4079 99.146 69.4332 99.1543C69.4586 99.1626 69.4819 99.1761 69.5016 99.1939C69.5214 99.2117 69.5371 99.2334 69.5479 99.2577C69.5586 99.2819 69.5641 99.3081 69.564 99.3346C69.564 99.3897 69.5419 99.4425 69.5026 99.4814C69.4633 99.5204 69.4101 99.5423 69.3545 99.5423H61.3755C61.3199 99.5423 61.2667 99.5204 61.2274 99.4814C61.1881 99.4425 61.166 99.3897 61.166 99.3346C61.1659 99.3081 61.1714 99.2819 61.1821 99.2577C61.1928 99.2334 61.2086 99.2117 61.2284 99.1939C61.2481 99.1761 61.2714 99.1626 61.2968 99.1543C61.3221 99.146 61.3489 99.1431 61.3755 99.1458ZM62.2896 98.5982H68.4404C68.4758 98.5982 68.5097 98.6121 68.5347 98.6369C68.5597 98.6617 68.5737 98.6953 68.5737 98.7304C68.5691 98.7621 68.5531 98.791 68.5286 98.8119C68.504 98.8327 68.4727 98.844 68.4404 98.8437H62.2896C62.2573 98.844 62.226 98.8327 62.2014 98.8119C62.1769 98.791 62.1609 98.7621 62.1563 98.7304C62.1563 98.6953 62.1703 98.6617 62.1953 98.6369C62.2203 98.6121 62.2542 98.5982 62.2896 98.5982ZM63.0513 83.1722V98.0507L63.1846 98.1828V98.3716H62.1563V98.1828L62.2896 98.0507V83.1722H63.0513ZM62.1563 41.6333H63.1846V41.8221C63.131 41.856 63.0855 41.9011 63.0513 41.9543V47.2033H62.2896V41.9354C62.2553 41.8823 62.2098 41.8372 62.1563 41.8032V41.6333ZM68.5547 41.2745C68.4092 41.157 68.292 41.0086 68.2119 40.8403H62.499C62.4189 41.0086 62.3018 41.157 62.1563 41.2745H68.5547ZM61.3945 38.9144C59.8901 38.9144 59.814 41.1801 61.2422 41.1801C61.3563 41.1878 61.4708 41.1727 61.5789 41.1358C61.6871 41.0989 61.7867 41.0409 61.8719 40.9653C61.9571 40.8896 62.0261 40.7978 62.0749 40.6953C62.1238 40.5927 62.1514 40.4815 62.1563 40.3682C62.1627 40.247 62.1268 40.1272 62.0546 40.029C61.9824 39.9309 61.8784 39.8604 61.76 39.8294C61.6415 39.7984 61.5159 39.8087 61.4043 39.8587C61.2927 39.9087 61.2018 39.9953 61.147 40.1039C61.1814 39.976 61.2584 39.8634 61.3657 39.7845C61.4729 39.7057 61.6039 39.6652 61.7373 39.6696C61.8474 39.6768 61.955 39.7055 62.0539 39.754C62.1529 39.8026 62.2411 39.87 62.3137 39.9525C62.3862 40.0349 62.4416 40.1308 62.4767 40.2346C62.5118 40.3383 62.5258 40.4479 62.5181 40.5571H68.231C68.2205 40.3347 68.2984 40.1172 68.448 39.9513C68.5975 39.7854 68.8068 39.6842 69.0308 39.6696C69.1642 39.6652 69.2952 39.7057 69.4024 39.7845C69.5096 39.8634 69.5867 39.976 69.6211 40.1039C69.5663 39.9953 69.4754 39.9087 69.3638 39.8587C69.2521 39.8087 69.1265 39.7984 69.0081 39.8294C68.8897 39.8604 68.7856 39.9309 68.7135 40.029C68.6413 40.1272 68.6054 40.247 68.6118 40.3682C68.6166 40.4815 68.6443 40.5927 68.6931 40.6953C68.742 40.7978 68.811 40.8896 68.8962 40.9653C68.9814 41.0409 69.081 41.0989 69.1891 41.1358C69.2973 41.1727 69.4118 41.1878 69.5259 41.1801C70.9541 41.1801 70.8779 38.9144 69.3735 38.9144H61.3945ZM82.1514 83.1722V98.0507L82.2847 98.1828V98.3716H81.2564V98.1828L81.3897 98.0507V83.1722H82.1514ZM81.2564 41.6333H82.2847V41.8221L82.1514 41.9543V47.2033H81.3897V41.9354L81.2564 41.8032V41.6333ZM80.7993 83.1722V98.0507L80.9326 98.1828V98.3716H79.9805V98.1828L80.1138 98.0507V83.1722H80.7993ZM79.9805 41.5389H80.9898V41.7277L80.8565 41.8599V47.2033H79.9805V41.9354V41.8032V41.5389ZM79.5044 83.0778V97.9562L79.6377 98.0884V98.2772H78.6284V98.1828L78.7617 98.0507V83.1722L79.5044 83.0778ZM78.6284 41.5389H79.6377V41.7277L79.5044 41.8599V47.2033H78.7617V41.9354L78.6284 41.8032V41.5389ZM78.1714 83.0778V97.9562L78.3047 98.0884V98.2772H77.2764V98.1828L77.4097 98.0507V83.1722L78.1714 83.0778ZM77.2764 41.5389H78.3047V41.7277L78.1714 41.8599V47.2033H77.4097V41.9354L77.2764 41.8032V41.5389ZM74.2676 99.8255H83.7891C83.8734 99.83 83.9532 99.8653 84.0129 99.9245C84.0727 99.9838 84.1082 100.063 84.1128 100.146C84.1128 100.189 84.1044 100.23 84.0882 100.269C84.0719 100.308 84.048 100.344 84.018 100.373C83.9879 100.403 83.9522 100.427 83.913 100.443C83.8737 100.459 83.8316 100.467 83.7891 100.467H74.2676C74.2235 100.47 74.1793 100.464 74.1378 100.449C74.0963 100.434 74.0584 100.41 74.0263 100.38C73.9942 100.35 73.9686 100.314 73.9511 100.274C73.9337 100.234 73.9247 100.19 73.9248 100.146C73.9297 100.06 73.9679 99.978 74.0317 99.9183C74.0955 99.8586 74.1799 99.8254 74.2676 99.8255ZM75.0674 99.1458H83.0464C83.073 99.1431 83.0998 99.146 83.1251 99.1543C83.1505 99.1626 83.1738 99.1761 83.1935 99.1939C83.2133 99.2117 83.229 99.2334 83.2398 99.2577C83.2505 99.2819 83.256 99.3081 83.2559 99.3346C83.2559 99.3897 83.2338 99.4425 83.1945 99.4814C83.1552 99.5204 83.102 99.5423 83.0464 99.5423H75.0864C75.0597 99.5424 75.0333 99.537 75.0089 99.5263C74.9844 99.5157 74.9625 99.5001 74.9446 99.4805C74.9266 99.4609 74.913 99.4378 74.9046 99.4126C74.8963 99.3875 74.8933 99.3609 74.896 99.3346C74.8929 99.3091 74.8958 99.2832 74.9042 99.2589C74.9127 99.2346 74.9267 99.2125 74.945 99.1944C74.9633 99.1762 74.9856 99.1624 75.0101 99.1539C75.0346 99.1455 75.0607 99.1427 75.0864 99.1458H75.0674ZM75.9815 98.5982H82.1323C82.1677 98.5982 82.2016 98.6121 82.2266 98.6369C82.2516 98.6617 82.2656 98.6953 82.2656 98.7304C82.261 98.7621 82.245 98.791 82.2205 98.8119C82.1959 98.8327 82.1646 98.844 82.1323 98.8437H76.0005C75.9702 98.8437 75.9411 98.8317 75.9197 98.8105C75.8983 98.7892 75.8862 98.7604 75.8862 98.7304C75.8859 98.6984 75.8973 98.6673 75.9183 98.643C75.9393 98.6187 75.9685 98.6028 76.0005 98.5982H75.9815ZM76.7432 83.1722V98.0507L76.8765 98.1828V98.3716H75.8672V98.1828L76.0005 98.0507V83.1722H76.7432ZM75.8672 41.6333H76.8765V41.8221C76.8274 41.8613 76.7827 41.9056 76.7432 41.9543V47.2033H76.0005V41.9354L75.8672 41.8032V41.6333ZM82.2656 41.2934C82.1196 41.1808 82.0076 41.0306 81.9419 40.8592H76.1719C76.0927 41.0229 75.9828 41.1703 75.8482 41.2934H82.2656ZM75.1055 38.9333C73.6011 38.9333 73.544 41.199 74.9531 41.199C75.0672 41.2067 75.1817 41.1916 75.2899 41.1547C75.398 41.1178 75.4976 41.0598 75.5828 40.9842C75.668 40.9085 75.737 40.8167 75.7859 40.7141C75.8347 40.6116 75.8624 40.5004 75.8672 40.3871C75.8916 40.2607 75.8668 40.1299 75.7979 40.0208C75.7291 39.9118 75.6212 39.8326 75.4958 39.7991C75.3705 39.7657 75.2371 39.7805 75.1223 39.8405C75.0075 39.9005 74.9199 40.0014 74.877 40.1228C74.9041 39.9946 74.9766 39.8803 75.0814 39.8007C75.1862 39.721 75.3164 39.6812 75.4482 39.6885C75.6722 39.7031 75.8815 39.8042 76.031 39.9702C76.1806 40.1361 76.2585 40.3536 76.2481 40.5759H81.9609C81.9503 40.3567 82.0256 40.1418 82.1711 39.9764C82.3167 39.8109 82.5211 39.7078 82.7417 39.6885C82.8751 39.684 83.0061 39.7246 83.1134 39.8034C83.2206 39.8823 83.2977 39.9949 83.332 40.1228C83.2772 40.0142 83.1863 39.9276 83.0747 39.8776C82.9631 39.8276 82.8375 39.8173 82.7191 39.8483C82.6006 39.8793 82.4966 39.9498 82.4244 40.0479C82.3522 40.1461 82.3163 40.2658 82.3228 40.3871C82.3276 40.5004 82.3552 40.6116 82.4041 40.7141C82.4529 40.8167 82.522 40.9085 82.6071 40.9842C82.6923 41.0598 82.7919 41.1178 82.9001 41.1547C83.0082 41.1916 83.1227 41.2067 83.2368 41.199C84.665 41.199 84.6079 38.9333 83.0845 38.9333H75.1055ZM95.8623 83.1722V98.0507L95.9956 98.1828V98.3716H94.9863V98.1828L95.1196 98.0507V83.1722H95.8623ZM94.9863 41.6333H95.9956V41.8221L95.8623 41.9543V47.2033H95.2149V41.9354L95.0816 41.8032L94.9863 41.6333ZM94.5103 83.1722V98.0507L94.6436 98.1828V98.3716H93.6343V98.1828L93.7676 98.0507V83.1722H94.5103ZM93.6343 41.6333H94.6436V41.8221L94.5103 41.9543V47.2033H93.7676V41.9354L93.6343 41.8032V41.6333ZM93.1773 83.1722V98.0507L93.3106 98.1828V98.3716H92.2822V98.1828L92.4155 98.0507V83.1722H93.1773ZM92.2822 41.6333H93.3106V41.8221C93.257 41.856 93.2115 41.9011 93.1773 41.9543V47.2033H92.4155V41.9354L92.2822 41.8032V41.6333ZM91.8252 83.1722V98.0507L91.9585 98.1828V98.3716H90.9492V98.1828L91.0825 98.0507V83.1722H91.8252ZM90.9492 41.6333H91.9585V41.8221L91.8252 41.9543V47.2033H91.0825V41.9354L90.9492 41.8032V41.6333ZM87.9976 99.8255H97.5191C97.6034 99.83 97.6831 99.8653 97.7429 99.9245C97.8026 99.9838 97.8382 100.063 97.8428 100.146C97.8428 100.189 97.8344 100.23 97.8181 100.269C97.8019 100.308 97.778 100.344 97.748 100.373C97.7179 100.403 97.6822 100.427 97.6429 100.443C97.6037 100.459 97.5616 100.467 97.5191 100.467H87.9976C87.9416 100.491 87.8798 100.498 87.8201 100.486C87.7603 100.475 87.7054 100.446 87.6624 100.403C87.6194 100.361 87.5902 100.306 87.5787 100.247C87.5671 100.188 87.5738 100.126 87.5977 100.071C87.6066 100.028 87.6242 99.9877 87.6494 99.9519C87.6746 99.9161 87.7069 99.8858 87.7443 99.8629C87.7818 99.8399 87.8235 99.8247 87.8671 99.8183C87.9106 99.8119 87.955 99.8143 87.9976 99.8255ZM88.7974 99.1458H96.7764C96.8029 99.1431 96.8298 99.146 96.8551 99.1543C96.8805 99.1626 96.9038 99.1761 96.9235 99.1939C96.9433 99.2117 96.959 99.2334 96.9698 99.2577C96.9805 99.2819 96.986 99.3081 96.9859 99.3346C96.9859 99.3897 96.9638 99.4425 96.9245 99.4814C96.8852 99.5204 96.8319 99.5423 96.7764 99.5423H88.7974C88.7452 99.5376 88.6967 99.5136 88.6614 99.4752C88.6262 99.4367 88.6067 99.3865 88.6069 99.3346C88.6069 99.2845 88.627 99.2365 88.6627 99.2011C88.6984 99.1657 88.7469 99.1458 88.7974 99.1458ZM89.7114 98.5982H95.8814C95.9133 98.6028 95.9425 98.6187 95.9635 98.643C95.9845 98.6673 95.9959 98.6984 95.9956 98.7304C95.9956 98.7604 95.9836 98.7892 95.9622 98.8105C95.9407 98.8317 95.9117 98.8437 95.8814 98.8437H89.7114C89.6811 98.8437 89.6521 98.8317 89.6306 98.8105C89.6092 98.7892 89.5972 98.7604 89.5972 98.7304C89.5968 98.6984 89.6082 98.6673 89.6293 98.643C89.6503 98.6187 89.6795 98.6028 89.7114 98.5982ZM90.4732 83.1722V98.0507L90.6065 98.1828V98.3716H89.5972V98.1828L89.7305 98.0507V83.1722H90.4732ZM89.5972 41.6333H90.6065V41.8221L90.4732 41.9543V47.2033H89.7305V41.9354L89.5972 41.8032V41.6333ZM95.9956 41.2934C95.8496 41.1808 95.7376 41.0306 95.6719 40.8592H89.959C89.8933 41.0306 89.7813 41.1808 89.6353 41.2934H95.9956ZM88.8545 38.9333C87.3311 38.9333 87.2739 41.199 88.6831 41.199C88.7972 41.2067 88.9117 41.1916 89.0199 41.1547C89.128 41.1178 89.2276 41.0598 89.3128 40.9842C89.398 40.9085 89.467 40.8167 89.5159 40.7141C89.5647 40.6116 89.5924 40.5004 89.5972 40.3871C89.6215 40.2607 89.5968 40.1299 89.5279 40.0208C89.4591 39.9118 89.3511 39.8326 89.2258 39.7991C89.1005 39.7657 88.9671 39.7805 88.8523 39.8405C88.7375 39.9005 88.6499 40.0014 88.6069 40.1228C88.6341 39.9946 88.7066 39.8803 88.8114 39.8007C88.9162 39.721 89.0464 39.6812 89.1782 39.6885C89.4022 39.7031 89.6115 39.8042 89.761 39.9702C89.9106 40.1361 89.9885 40.3536 89.978 40.5759H95.6909C95.6805 40.3536 95.7584 40.1361 95.908 39.9702C96.0575 39.8042 96.2668 39.7031 96.4907 39.6885C96.6217 39.6849 96.75 39.7261 96.854 39.8052C96.9581 39.8843 97.0315 39.9964 97.062 40.1228C97.0072 40.0142 96.9163 39.9276 96.8047 39.8776C96.6931 39.8276 96.5675 39.8173 96.449 39.8483C96.3306 39.8793 96.2266 39.9498 96.1544 40.0479C96.0822 40.1461 96.0463 40.2658 96.0527 40.3871C96.0574 40.5021 96.0857 40.615 96.1357 40.7189C96.1857 40.8228 96.2565 40.9155 96.3438 40.9914C96.431 41.0673 96.5329 41.1249 96.6433 41.1606C96.7537 41.1963 96.8702 41.2093 96.9859 41.199C98.395 41.199 98.3379 38.9333 96.8145 38.9333H88.8545ZM32.792 26.8492H84.208L58.5 15.9547L32.792 26.8492ZM10.7783 31.3241L58.5 11.1022L106.222 31.3241H10.7783Z" fill="#424242"/>
<path d="M21.2139 33.2689H19.0811V35.3836H21.2139V33.2689Z" fill="#424242"/>
<path fill-rule="evenodd" clip-rule="evenodd" d="M24.5654 35.4025H26.6602V33.2689H24.5654V35.4025Z" fill="#424242"/>
<path fill-rule="evenodd" clip-rule="evenodd" d="M30.0498 35.4025H32.1826V33.2689H30.0498V35.4025Z" fill="#424242"/>
<path fill-rule="evenodd" clip-rule="evenodd" d="M35.5151 35.4025H37.667V33.2689H35.5151V35.4025Z" fill="#424242"/>
<path fill-rule="evenodd" clip-rule="evenodd" d="M40.9995 35.4025H43.1514V33.2689H40.9995V35.4025Z" fill="#424242"/>
<path fill-rule="evenodd" clip-rule="evenodd" d="M46.4839 35.4025H48.6167V33.2689H46.4839V35.4025Z" fill="#424242"/>
<path fill-rule="evenodd" clip-rule="evenodd" d="M51.9492 35.4025H54.1011V33.2689H51.9492V35.4025Z" fill="#424242"/>
<path fill-rule="evenodd" clip-rule="evenodd" d="M57.4336 35.4025H59.5664V33.2689H57.4336V35.4025Z" fill="#424242"/>
<path fill-rule="evenodd" clip-rule="evenodd" d="M62.8418 35.4025H64.9746V33.2689H62.8418V35.4025Z" fill="#424242"/>
<path fill-rule="evenodd" clip-rule="evenodd" d="M68.3833 35.4025H70.459V33.2689H68.3833V35.4025Z" fill="#424242"/>
<path fill-rule="evenodd" clip-rule="evenodd" d="M73.8677 35.4025H76.0005V33.2689H73.8677V35.4025Z" fill="#424242"/>
<path fill-rule="evenodd" clip-rule="evenodd" d="M79.3521 35.4025H81.4849V33.2689H79.3521V35.4025Z" fill="#424242"/>
<path fill-rule="evenodd" clip-rule="evenodd" d="M84.8174 35.4025H86.9692V33.2689H84.8174V35.4025Z" fill="#424242"/>
<path fill-rule="evenodd" clip-rule="evenodd" d="M90.3018 35.4025H92.4346V33.2689H90.3018V35.4025Z" fill="#424242"/>
<path d="M97.9189 33.2689H95.7861V35.3836H97.9189V33.2689Z" fill="#424242"/>
</g>
<defs>
<linearGradient id="paint0_linear" x1="0" y1="23.5451" x2="117" y2="23.5451" gradientUnits="userSpaceOnUse">
<stop stop-color="#E7CC74"/>
<stop offset="0.44" stop-color="#F6E5B7"/>
<stop offset="0.630208" stop-color="#F6E5B7"/>
<stop offset="1" stop-color="#EED57B"/>
</linearGradient>
<linearGradient id="paint1_linear" x1="0.818848" y1="2935.32" x2="7087.51" y2="2935.32" gradientUnits="userSpaceOnUse">
<stop stop-color="#A67226"/>
<stop offset="0.24" stop-color="#E7CC74"/>
<stop offset="0.25" stop-color="#E7CC74"/>
<stop offset="0.44" stop-color="#F6E5B7"/>
<stop offset="0.48" stop-color="#F6E5B7"/>
<stop offset="0.51" stop-color="#F6E5B7"/>
<stop offset="0.66" stop-color="#EED57B"/>
<stop offset="0.71" stop-color="#EED57B"/>
<stop offset="1" stop-color="#A67226"/>
</linearGradient>
<clipPath id="clip0">
<rect width="117" height="133" fill="white"/>
</clipPath>
</defs>
</svg>
