<svg width="26" height="26" viewBox="0 0 26 26" fill="none" xmlns="http://www.w3.org/2000/svg">
<path d="M16.25 13H18.4167C18.4167 10.01 15.99 7.58333 13 7.58333V9.75C14.7983 9.75 16.25 11.2017 16.25 13ZM20.5833 13H22.75C22.75 7.61583 18.3842 3.25 13 3.25V5.41667C17.1925 5.41667 20.5833 8.8075 20.5833 13ZM21.6667 16.7917C20.3125 16.7917 19.0125 16.575 17.7992 16.1742C17.6908 16.1417 17.5717 16.12 17.4633 16.12C17.1817 16.12 16.9108 16.2283 16.6942 16.4342L14.3108 18.8175C11.245 17.2575 8.73167 14.755 7.17167 11.6783L9.555 9.28417C9.85833 9.0025 9.945 8.58 9.82583 8.20083C9.425 6.9875 9.20833 5.6875 9.20833 4.33333C9.20833 3.7375 8.72083 3.25 8.125 3.25H4.33333C3.7375 3.25 3.25 3.7375 3.25 4.33333C3.25 14.5058 11.4942 22.75 21.6667 22.75C22.2625 22.75 22.75 22.2625 22.75 21.6667V17.875C22.75 17.2792 22.2625 16.7917 21.6667 16.7917ZM5.44917 5.41667H7.07417C7.15 6.37 7.3125 7.3125 7.56167 8.21167L6.26167 9.5225C5.82833 8.21167 5.54667 6.84667 5.44917 5.41667ZM20.5833 20.5508C19.1533 20.4533 17.7667 20.1717 16.4667 19.7275L17.7667 18.4275C18.6875 18.6875 19.63 18.85 20.5833 18.915V20.5508Z" fill="#B38E56"/>
</svg>
